<?xml version="1.0" encoding="utf-8"?>
<!-- Generator: Adobe Illustrator 21.0.0, SVG Export Plug-In . SVG Version: 6.00 Build 0)  -->
<svg version="1.1" id="Layer_1" xmlns="http://www.w3.org/2000/svg" xmlns:xlink="http://www.w3.org/1999/xlink" x="0px" y="0px"
	 width="13.6px" height="13.6px" viewBox="0 0 13.6 13.6" enable-background="new 0 0 13.6 13.6" xml:space="preserve">
<g>
	<path fill="#FFFFFF" d="M9.8,0H3.7C1.7,0,0,1.7,0,3.7v6.1c0,2.1,1.7,3.7,3.7,3.7h6.1c2.1,0,3.7-1.7,3.7-3.7V3.7
		C13.6,1.7,11.9,0,9.8,0L9.8,0z M12.4,9.8c0,1.4-1.1,2.5-2.5,2.5H3.7c-1.4,0-2.5-1.1-2.5-2.5V3.7c0-1.4,1.1-2.5,2.5-2.5h6.1
		c1.4,0,2.5,1.1,2.5,2.5V9.8z M12.4,9.8"/>
	<path fill="#FFFFFF" d="M6.8,3.3c-1.9,0-3.5,1.6-3.5,3.5c0,1.9,1.6,3.5,3.5,3.5c1.9,0,3.5-1.6,3.5-3.5C10.3,4.9,8.7,3.3,6.8,3.3
		L6.8,3.3z M6.8,9.1c-1.3,0-2.3-1-2.3-2.3c0-1.3,1-2.3,2.3-2.3s2.3,1,2.3,2.3C9.1,8.1,8.1,9.1,6.8,9.1L6.8,9.1z M6.8,9.1"/>
	<path fill="#FFFFFF" d="M10.4,2.3c-0.2,0-0.5,0.1-0.6,0.3C9.6,2.7,9.5,2.9,9.5,3.2c0,0.2,0.1,0.5,0.3,0.6C10,3.9,10.2,4,10.4,4
		c0.2,0,0.5-0.1,0.6-0.3c0.2-0.2,0.3-0.4,0.3-0.6c0-0.2-0.1-0.5-0.3-0.6C10.9,2.4,10.7,2.3,10.4,2.3L10.4,2.3z M10.4,2.3"/>
</g>
</svg>
